<?xml version="1.0" encoding="UTF-8"?>
<svg xmlns="http://www.w3.org/2000/svg" xmlns:xlink="http://www.w3.org/1999/xlink" width="375pt" height="374.999991pt" viewBox="0 0 375 374.999991" version="1.2">
<defs>
<clipPath id="clip1">
  <path d="M 5.355469 100 L 369.855469 100 L 369.855469 283 L 5.355469 283 Z M 5.355469 100 "/>
</clipPath>
</defs>
<g id="surface1">
<g clip-path="url(#clip1)" clip-rule="nonzero">
<path style=" stroke:none;fill-rule:nonzero;fill:rgb(0.389099%,91.758728%,86.669922%);fill-opacity:1;" d="M 30.871094 198.429688 C 42.535156 198.429688 52.011719 190.777344 55.292969 180.214844 L 82.632812 180.214844 L 98.667969 196.242188 C 100.128906 197.699219 101.949219 198.429688 103.773438 198.429688 L 133.660156 198.429688 C 132.203125 202.800781 132.933594 207.171875 135.484375 211.179688 C 138.035156 215.183594 142.773438 217.371094 147.511719 217.371094 L 161.726562 217.371094 L 151.886719 264.726562 C 150.429688 271.648438 154.074219 278.570312 160.632812 281.121094 C 162.457031 281.847656 164.277344 282.210938 166.101562 282.210938 C 170.839844 282.210938 175.578125 280.027344 178.128906 275.65625 L 229.523438 198.429688 L 271.441406 198.429688 C 273.265625 198.429688 275.085938 197.699219 276.546875 196.242188 L 292.582031 180.214844 L 319.921875 180.214844 C 323.199219 190.777344 332.679688 198.429688 344.34375 198.429688 C 358.558594 198.429688 369.855469 187.136719 369.855469 172.929688 C 369.855469 158.722656 358.558594 147.429688 344.34375 147.429688 C 332.679688 147.429688 323.199219 155.078125 319.921875 165.644531 L 289.667969 165.644531 C 287.84375 165.644531 286.023438 166.371094 284.5625 167.828125 L 268.527344 183.855469 L 239.367188 183.855469 L 240.09375 183.128906 C 243.011719 178.757812 243.375 172.929688 240.824219 168.191406 C 238.273438 163.457031 233.167969 160.542969 228.066406 160.542969 L 206.195312 160.542969 L 219.683594 120.109375 C 220.410156 118.652344 220.777344 116.832031 220.777344 115.007812 C 220.777344 106.996094 214.214844 100.4375 206.195312 100.4375 L 181.410156 100.4375 C 175.214844 100.4375 169.746094 104.082031 167.925781 109.910156 L 139.128906 183.855469 L 107.050781 183.855469 L 91.015625 167.828125 C 89.191406 166.371094 87.371094 165.644531 85.546875 165.644531 L 55.292969 165.644531 C 52.011719 155.078125 42.535156 147.429688 30.871094 147.429688 C 16.65625 147.429688 5.355469 158.722656 5.355469 172.929688 C 5.355469 187.136719 16.65625 198.429688 30.871094 198.429688 Z M 344.34375 162 C 350.539062 162 355.277344 166.734375 355.277344 172.929688 C 355.277344 179.121094 350.539062 183.855469 344.34375 183.855469 C 338.144531 183.855469 333.40625 179.121094 333.40625 172.929688 C 333.40625 166.734375 338.144531 162 344.34375 162 Z M 180.679688 114.644531 L 205.46875 114.644531 L 185.785156 174.75 L 227.703125 174.75 L 166.101562 267.640625 L 179.589844 202.800781 L 147.511719 202.800781 Z M 30.871094 162 C 37.070312 162 41.808594 166.734375 41.808594 172.929688 C 41.808594 179.121094 37.070312 183.855469 30.871094 183.855469 C 24.675781 183.855469 19.9375 179.121094 19.9375 172.929688 C 19.9375 166.734375 24.675781 162 30.871094 162 Z M 30.871094 162 "/>
</g>
<path style=" stroke:none;fill-rule:nonzero;fill:rgb(0.389099%,91.758728%,86.669922%);fill-opacity:1;" d="M 187.605469 74.574219 C 237.179688 74.574219 279.460938 106.628906 294.40625 151.070312 L 309.714844 151.070312 C 294.042969 98.617188 245.199219 60.003906 187.605469 60.003906 C 130.015625 60.003906 81.171875 98.617188 65.5 151.070312 L 80.808594 151.070312 C 95.753906 106.628906 138.035156 74.574219 187.605469 74.574219 Z M 187.605469 74.574219 "/>
<path style=" stroke:none;fill-rule:nonzero;fill:rgb(0.389099%,91.758728%,86.669922%);fill-opacity:1;" d="M 187.605469 300.425781 C 127.828125 300.425781 78.621094 253.796875 74.976562 194.785156 L 60.398438 194.785156 C 64.042969 261.8125 119.808594 314.996094 187.605469 314.996094 C 255.402344 314.996094 311.171875 261.8125 314.816406 194.785156 L 300.238281 194.785156 C 296.59375 253.796875 247.386719 300.425781 187.605469 300.425781 Z M 187.605469 300.425781 "/>
</g>
</svg>
