<?xml version="1.0" encoding="UTF-8"?>
<svg xmlns="http://www.w3.org/2000/svg" xmlns:xlink="http://www.w3.org/1999/xlink" width="75pt" height="74.999997pt" viewBox="0 0 75 74.999997" version="1.2">
<defs>
<clipPath id="clip1">
  <path d="M 0.523438 20.859375 L 74.773438 20.859375 L 74.773438 24 L 0.523438 24 Z M 0.523438 20.859375 "/>
</clipPath>
<clipPath id="clip2">
  <path d="M 0.523438 36 L 74.773438 36 L 74.773438 39 L 0.523438 39 Z M 0.523438 36 "/>
</clipPath>
<clipPath id="clip3">
  <path d="M 0.523438 51 L 74.773438 51 L 74.773438 53.859375 L 0.523438 53.859375 Z M 0.523438 51 "/>
</clipPath>
</defs>
<g id="surface1">
<g clip-path="url(#clip1)" clip-rule="nonzero">
<path style=" stroke:none;fill-rule:nonzero;fill:rgb(100%,100%,100%);fill-opacity:1;" d="M 73.542969 23.078125 L 1.757812 23.078125 C 1.136719 23.078125 0.636719 22.585938 0.636719 21.972656 C 0.636719 21.359375 1.136719 20.863281 1.757812 20.863281 L 73.542969 20.863281 C 74.164062 20.863281 74.664062 21.359375 74.664062 21.972656 C 74.664062 22.585938 74.164062 23.078125 73.542969 23.078125 "/>
</g>
<g clip-path="url(#clip2)" clip-rule="nonzero">
<path style=" stroke:none;fill-rule:nonzero;fill:rgb(100%,100%,100%);fill-opacity:1;" d="M 73.542969 38.472656 L 1.757812 38.472656 C 1.136719 38.472656 0.636719 37.976562 0.636719 37.363281 C 0.636719 36.753906 1.136719 36.257812 1.757812 36.257812 L 73.542969 36.257812 C 74.164062 36.257812 74.664062 36.753906 74.664062 37.363281 C 74.664062 37.976562 74.164062 38.472656 73.542969 38.472656 "/>
</g>
<g clip-path="url(#clip3)" clip-rule="nonzero">
<path style=" stroke:none;fill-rule:nonzero;fill:rgb(100%,100%,100%);fill-opacity:1;" d="M 73.542969 53.863281 L 1.757812 53.863281 C 1.136719 53.863281 0.636719 53.367188 0.636719 52.757812 C 0.636719 52.144531 1.136719 51.648438 1.757812 51.648438 L 73.542969 51.648438 C 74.164062 51.648438 74.664062 52.144531 74.664062 52.757812 C 74.664062 53.367188 74.164062 53.863281 73.542969 53.863281 "/>
</g>
</g>
</svg>
